<?xml version="1.0" standalone="no"?>
<!DOCTYPE svg PUBLIC "-//W3C//DTD SVG 20010904//EN"
 "http://www.w3.org/TR/2001/REC-SVG-20010904/DTD/svg10.dtd">
<svg version="1.0" xmlns="http://www.w3.org/2000/svg"
 width="1122.000000pt" height="1122.000000pt" viewBox="0 0 1122.000000 1122.000000"
 preserveAspectRatio="xMidYMid meet">
<metadata>
Created by potrace 1.11, written by Peter Selinger 2001-2013
</metadata>
<g transform="translate(0.000000,1122.000000) scale(0.100000,-0.100000)"
fill="#000000" stroke="none">
<path d="M4480 11033 c-94 -11 -288 -56 -394 -93 -238 -82 -408 -191 -523
-333 -141 -174 -220 -385 -249 -662 -4 -46 -14 -79 -28 -98 -18 -24 -21 -43
-21 -122 0 -88 2 -96 31 -137 21 -30 33 -62 38 -99 24 -188 105 -489 131 -489
9 0 15 -26 20 -82 10 -131 33 -321 56 -470 l21 -137 -60 -91 c-33 -50 -70
-115 -82 -143 -21 -51 -24 -53 -103 -86 -136 -56 -404 -192 -542 -275 -370
-223 -682 -481 -908 -751 -114 -135 -253 -342 -310 -461 l-39 -79 -100 -49
c-109 -53 -138 -77 -241 -206 -125 -156 -162 -270 -115 -360 13 -25 43 -60 69
-79 l46 -34 -23 -35 c-19 -27 -24 -48 -24 -94 0 -114 61 -180 185 -201 51 -9
68 -9 74 1 4 6 12 -19 19 -58 54 -313 262 -636 550 -852 53 -40 98 -73 100
-74 2 -1 -4 -48 -14 -104 -29 -177 -7 -289 81 -421 30 -45 55 -85 55 -88 0 -3
-21 -19 -46 -35 -210 -133 -374 -413 -443 -756 -32 -160 -41 -267 -41 -483 0
-352 46 -684 157 -1122 25 -99 47 -189 50 -200 4 -18 -6 -24 -69 -44 -329
-105 -574 -330 -644 -594 -19 -70 -18 -204 1 -258 23 -64 68 -106 129 -119
136 -30 582 -22 1216 21 562 38 1320 110 1386 131 63 21 69 47 38 164 -34 129
-34 126 0 135 16 4 39 18 52 30 20 19 24 32 24 80 l0 58 57 -26 c196 -87 465
-152 787 -188 419 -47 1145 -31 1611 36 312 45 512 104 733 216 79 41 145 73
146 71 29 -46 40 -59 64 -74 l29 -17 -18 -48 c-28 -73 -26 -177 5 -237 50 -97
100 -127 251 -146 243 -31 371 -38 881 -43 496 -5 893 3 1289 27 157 10 160
10 182 38 40 48 92 165 103 233 46 267 -192 520 -665 705 -61 23 -132 49 -158
56 -37 10 -49 18 -54 37 -10 41 6 1212 19 1411 20 289 16 455 -15 570 -57 219
-147 385 -241 447 -26 18 -53 30 -58 27 -6 -4 -8 1 -5 12 19 62 30 165 31 279
1 117 -1 135 -22 177 -27 55 -76 83 -128 75 -19 -3 -34 -4 -34 -3 0 2 13 54
30 117 44 171 61 286 67 474 7 201 -6 348 -48 559 -33 168 -114 420 -183 571
-39 87 -43 102 -31 115 31 34 48 95 48 175 0 114 -15 161 -73 216 -44 43 -135
89 -175 89 -12 0 -15 14 -15 60 0 136 -43 225 -128 263 -41 18 -66 21 -188 22
l-141 0 -29 48 c-39 65 -178 197 -292 277 -214 150 -555 339 -907 501 -121 56
-223 104 -227 108 -4 3 4 110 18 236 30 280 43 712 25 850 -29 219 -78 347
-194 508 -103 142 -213 246 -280 262 -28 7 -30 11 -47 97 -18 92 -66 126 -159
114 l-48 -6 -1 87 c-1 113 -34 228 -104 366 -29 56 -54 105 -56 110 -2 4 7 7
20 7 30 0 68 26 68 47 0 28 -83 96 -175 144 -182 94 -398 163 -606 194 -98 14
-373 19 -469 8z m459 -39 c269 -39 615 -168 729 -272 33 -31 35 -35 18 -44
-41 -23 -229 22 -381 92 -101 47 -195 52 -267 16 -29 -14 -108 -70 -175 -124
-201 -162 -309 -196 -503 -157 -47 9 -158 19 -247 22 l-162 6 -58 -28 c-133
-65 -258 -237 -285 -392 -11 -67 -10 -85 15 -221 32 -174 34 -230 10 -239 -42
-16 -104 54 -124 143 -11 49 -15 54 -38 53 -14 0 -50 8 -79 18 l-53 18 6 60
c4 33 16 106 26 161 67 353 255 597 573 744 144 66 375 131 551 153 83 11 347
6 444 -9z m296 -233 c28 -11 88 -35 135 -55 47 -19 117 -42 155 -50 80 -17 85
-22 148 -151 54 -108 84 -198 96 -286 8 -59 5 -159 -6 -159 -2 0 -92 -18 -200
-40 -108 -22 -198 -39 -200 -37 -4 5 67 63 122 100 22 15 61 34 87 43 29 9 48
22 48 31 0 11 -7 14 -27 9 -125 -30 -303 -181 -336 -287 -4 -13 -13 -14 -54
-6 -57 11 -113 -1 -167 -38 l-38 -26 -34 31 c-27 23 -44 30 -77 30 -71 -1
-553 -105 -583 -126 -15 -10 -32 -23 -39 -28 -8 -6 -101 17 -270 67 -142 42
-260 75 -263 72 -18 -17 36 -39 262 -105 l256 -75 0 -30 c0 -16 11 -79 25
-140 21 -93 29 -114 55 -137 43 -39 72 -37 381 27 262 54 264 55 297 89 38 42
40 70 16 193 -9 45 -14 89 -11 97 3 8 27 27 52 42 35 20 59 27 100 26 74 -1
91 -12 104 -72 15 -69 14 -73 -8 -60 -26 14 -42 -9 -16 -24 120 -71 312 -232
417 -350 80 -91 95 -118 84 -160 -20 -79 -248 -123 -411 -81 -41 11 -61 13
-69 5 -45 -45 259 -70 384 -31 85 27 130 70 130 125 0 59 -26 95 -169 237
l-127 126 235 48 c130 27 249 54 264 62 46 23 69 70 62 125 -5 43 -4 47 12 41
70 -25 176 -132 274 -275 150 -219 186 -383 176 -812 -4 -232 -60 -863 -77
-876 -3 -3 -14 -61 -24 -129 -19 -145 -52 -251 -101 -326 -48 -76 -153 -194
-352 -396 l-174 -176 -28 -114 c-36 -140 -55 -287 -49 -375 l4 -66 -30 38
c-57 75 -202 210 -291 271 -59 41 -114 89 -160 143 -164 191 -376 340 -573
405 -141 46 -385 193 -557 337 -262 219 -480 549 -490 743 -2 33 -8 80 -14
105 -15 68 -58 388 -72 535 -6 72 -12 214 -13 317 l-1 186 28 22 c32 25 49 62
41 85 -11 27 -34 17 -34 -15 0 -36 -26 -52 -77 -48 -34 3 -37 6 -53 54 -9 28
-35 73 -57 100 -51 60 -63 90 -63 159 0 65 12 100 40 115 18 10 31 7 78 -17
52 -25 60 -34 89 -94 17 -36 43 -76 58 -88 36 -28 100 -29 115 -2 15 30 12
119 -9 233 -31 163 -32 180 -21 238 26 139 151 309 267 366 54 27 56 27 201
20 81 -3 181 -13 222 -21 41 -8 111 -15 156 -15 139 0 229 38 380 161 200 164
252 183 369 140z m710 -734 c19 -16 30 -40 40 -87 23 -104 27 -98 -62 -82
-182 32 -425 -25 -571 -135 -35 -26 -33 -29 -51 49 -17 73 -14 114 12 142 19
23 50 32 262 75 132 27 249 52 260 54 49 11 85 6 110 -16z m-1003 -212 c19
-19 30 -47 42 -111 10 -47 16 -88 14 -90 -3 -2 -19 0 -36 5 -62 18 -186 23
-265 11 -127 -19 -263 -73 -363 -145 -20 -15 -21 -13 -38 79 -16 85 -16 96 -2
124 8 16 23 33 33 37 32 13 517 113 554 114 26 1 43 -6 61 -24z m971 14 c86
-13 107 -23 107 -50 0 -31 -26 -73 -52 -86 -12 -7 -135 -35 -272 -63 l-248
-50 -60 44 -59 44 33 25 c52 38 56 39 78 17 26 -26 54 -26 81 1 15 15 19 28
14 49 -6 28 -4 30 50 45 119 35 212 42 328 24z m-949 -240 c38 -9 46 -15 46
-35 0 -12 -10 -35 -23 -50 -21 -25 -46 -32 -278 -80 -295 -62 -330 -64 -364
-29 -14 13 -25 28 -25 33 0 10 71 62 116 85 28 15 31 14 42 -4 18 -28 67 -25
88 6 9 14 14 31 11 40 -8 20 3 25 86 41 80 15 228 12 301 -7z m-1587 -146 c-3
-10 -5 -4 -5 12 0 17 2 24 5 18 2 -7 2 -21 0 -30z m68 -69 l25 -6 -1 -157 c0
-115 -3 -149 -10 -131 -16 38 -66 239 -74 294 l-8 49 21 -21 c12 -12 33 -24
47 -28z m150 -1252 c135 -407 567 -821 1050 -1007 66 -26 148 -62 181 -80 98
-55 231 -163 337 -275 l98 -103 -58 -32 c-67 -36 -132 -110 -200 -227 -25 -43
-47 -78 -50 -78 -8 0 -817 652 -943 761 -246 212 -349 335 -451 539 -54 109
-114 281 -125 357 -4 34 -1 60 9 86 18 41 106 181 111 176 2 -2 21 -55 41
-117z m-170 -227 c63 -247 193 -480 365 -654 109 -110 280 -254 753 -633 l420
-338 43 75 c59 103 79 132 138 193 55 58 93 82 127 82 67 0 323 -223 412 -358
51 -77 357 -656 457 -866 174 -362 241 -706 195 -1006 -30 -200 -91 -337 -196
-442 -203 -201 -579 -239 -1149 -114 -169 37 -161 34 -375 167 -108 68 -200
123 -203 122 -24 -6 2 -29 103 -93 63 -40 115 -75 115 -78 0 -2 -8 -10 -17
-17 -9 -7 -22 -26 -28 -43 l-10 -30 -95 24 c-52 14 -156 49 -230 79 -182 73
-402 115 -602 115 l-73 0 -23 73 c-65 204 -203 341 -397 395 -102 28 -138 45
-185 89 -60 53 -72 88 -81 238 -7 114 -35 270 -84 455 -6 24 -3 27 46 39 95
25 169 128 169 236 0 22 9 40 31 61 96 89 103 241 20 399 -14 28 -27 53 -29
56 -1 3 28 29 66 56 173 127 313 276 328 352 10 47 -12 38 -35 -15 -31 -70
-181 -218 -342 -337 l-36 -27 -62 75 c-112 137 -296 261 -466 315 -185 59
-557 26 -856 -75 -40 -14 -74 -23 -77 -21 -6 7 79 159 146 262 315 481 890
935 1557 1230 66 30 124 52 129 51 4 -2 18 -43 31 -92z m3211 11 c455 -208
829 -419 1049 -591 88 -68 186 -169 210 -215 15 -29 15 -30 -12 -35 -216 -47
-420 -156 -582 -313 -56 -55 -72 -75 -63 -84 9 -9 33 9 99 73 214 205 460 309
734 309 221 0 287 -49 297 -222 l5 -78 -48 0 c-71 0 -52 -22 32 -36 139 -23
234 -85 264 -171 21 -58 18 -180 -5 -231 -10 -23 -23 -42 -27 -42 -4 0 -25 32
-45 70 -20 39 -46 76 -58 82 -14 8 -85 12 -201 11 -148 0 -199 -4 -285 -22
-197 -42 -360 -126 -462 -241 l-53 -58 -48 66 c-120 164 -257 544 -318 885 -9
45 -17 67 -27 67 -18 0 -12 -37 43 -266 81 -329 174 -559 297 -729 111 -153
157 -231 233 -388 79 -164 120 -276 159 -432 94 -371 69 -764 -64 -1023 -22
-42 -45 -84 -53 -93 -9 -12 -49 -21 -147 -34 -214 -26 -506 -89 -602 -130 -14
-5 -18 -2 -18 15 0 30 -30 79 -54 86 -19 6 -18 8 10 33 16 14 42 36 58 49 21
16 26 26 19 33 -8 8 -41 -13 -114 -72 -268 -214 -548 -357 -734 -374 -38 -4
-81 -3 -93 2 -22 9 -20 11 36 46 315 195 399 739 202 1310 -53 153 -91 233
-310 651 -104 199 -197 382 -207 407 -12 33 -17 76 -17 174 0 133 13 221 56
373 24 81 43 95 98 72 38 -16 153 -139 200 -213 19 -31 38 -56 41 -57 3 0 30
24 60 54 131 127 205 295 255 576 13 72 18 173 20 420 2 179 6 331 9 338 2 6
9 12 14 12 5 0 71 -29 147 -64z m-199 -426 c-3 -107 -12 -236 -21 -285 -39
-228 -116 -412 -218 -520 l-60 -65 -51 73 c-66 93 -132 159 -183 182 l-41 18
153 156 c205 210 298 321 339 405 34 69 74 202 76 255 l2 26 4 -25 c3 -14 3
-113 0 -220z m-4000 -955 c248 -58 510 -270 620 -502 58 -122 59 -225 1 -304
l-31 -43 -22 51 c-13 28 -28 54 -35 58 -22 14 -23 -5 -2 -48 41 -82 17 -243
-45 -299 -23 -21 -86 -48 -111 -48 -24 0 -97 159 -87 190 22 68 -11 152 -76
200 -150 108 -509 140 -784 70 -157 -40 -347 -143 -437 -237 -33 -34 -38 -46
-50 -128 l-13 -90 -43 2 c-94 4 -166 77 -166 168 0 56 34 115 66 115 10 0 18
7 18 15 0 15 73 79 182 159 61 45 76 66 45 66 -7 0 -68 -45 -137 -99 l-125
-99 -39 22 c-56 31 -88 77 -94 137 -4 43 1 60 31 122 43 85 179 258 232 294
108 73 362 166 570 208 227 46 392 52 532 20z m6038 -127 c16 -15 85 -146 85
-160 0 -10 4 -18 9 -18 8 0 89 -180 129 -291 57 -156 123 -435 141 -594 12
-105 12 -409 0 -505 -12 -101 -34 -205 -67 -324 -25 -91 -30 -101 -64 -122
-21 -13 -42 -24 -47 -24 -5 0 -30 26 -56 58 -26 31 -59 65 -74 74 -49 33 -126
19 -200 -36 -19 -14 -38 -26 -41 -26 -4 0 -15 19 -26 41 -30 67 -92 124 -152
138 -63 16 -144 1 -198 -35 l-36 -25 5 23 c38 158 35 452 -8 653 -61 294 -173
558 -355 842 -13 19 -11 25 23 66 106 130 330 238 552 266 64 8 372 8 380 -1z
m-6113 -553 c261 -39 375 -135 327 -273 -10 -28 -7 -39 23 -94 44 -80 60 -128
104 -318 25 -111 38 -194 43 -291 8 -123 11 -142 37 -189 43 -79 108 -121 249
-159 44 -12 101 -34 128 -48 63 -35 164 -142 204 -218 64 -122 101 -278 82
-348 -13 -51 -76 -112 -163 -159 -76 -42 -102 -48 -91 -20 3 9 9 46 12 83 10
122 -43 236 -145 309 -30 22 -59 40 -64 40 -17 0 -7 -30 13 -41 43 -23 111
-94 137 -144 23 -43 26 -63 26 -140 1 -78 -3 -98 -27 -150 -49 -106 -116 -154
-213 -155 l-51 0 -5 88 c-6 103 -102 442 -125 442 -19 0 -18 -5 39 -188 47
-154 51 -175 52 -272 1 -90 -2 -111 -21 -146 -33 -61 -86 -104 -130 -104 -49
0 -84 28 -198 163 -52 63 -108 123 -124 135 -16 11 -60 28 -97 37 -87 20 -132
51 -195 134 -64 86 -106 171 -120 246 -15 80 -4 210 27 304 28 90 28 91 9 91
-8 0 -17 -11 -21 -25 -3 -14 -8 -25 -11 -25 -2 0 -32 21 -66 47 -361 273 -566
622 -584 991 l-6 113 29 30 c15 16 60 51 98 78 231 159 520 221 818 176z
m5755 -1266 c40 -15 91 -66 118 -120 81 -158 71 -351 -29 -554 -175 -354 -387
-328 -404 51 -5 117 8 185 49 266 11 21 18 38 17 38 -2 0 -24 -7 -50 -15 -27
-8 -48 -12 -48 -9 0 2 33 73 74 158 80 167 69 155 176 190 26 8 68 6 97 -5z
m450 -166 c84 -90 97 -120 89 -197 -8 -83 -80 -352 -117 -442 -54 -129 -133
-196 -249 -210 -73 -8 -125 13 -144 58 -27 65 -23 88 31 170 116 176 164 373
133 539 -10 51 -9 54 17 80 40 39 102 69 142 69 31 0 44 -9 98 -67z m323 -50
c22 -21 33 -42 40 -82 33 -176 -28 -493 -119 -624 -44 -62 -116 -106 -176
-107 -51 0 -80 20 -95 65 -6 19 -15 35 -20 35 -4 0 7 30 25 68 70 141 139 406
139 535 0 48 0 87 0 87 1 0 28 11 61 25 78 32 108 31 145 -2z m-1080 -162 c0
-5 -16 -11 -35 -13 -36 -4 -36 6 0 15 32 8 35 7 35 -2z m-1817 -413 c2 -9 31
-13 95 -13 51 0 92 -2 92 -5 0 -18 -64 -112 -92 -135 -61 -51 -114 -69 -208
-69 -120 0 -193 24 -247 80 -55 57 -57 84 -5 84 62 0 225 28 283 48 67 24 76
25 82 10z"/>
<path d="M4366 10160 c-50 -16 -136 -116 -136 -160 0 -25 27 -6 49 36 35 64
77 94 134 94 54 0 175 -37 305 -92 68 -30 97 -37 105 -29 14 14 19 10 -93 59
-181 78 -306 109 -364 92z"/>
<path d="M3415 9680 c-23 -25 -15 -56 29 -105 l35 -40 1 83 c0 79 -1 82 -23
82 -13 0 -32 -9 -42 -20z m35 -37 c-1 -24 -2 -26 -11 -10 -5 9 -7 22 -4 27 10
17 15 11 15 -17z"/>
<path d="M5920 8991 c0 -13 10 -21 32 -25 18 -4 52 -16 76 -27 36 -18 43 -25
40 -47 -6 -53 -202 -132 -418 -169 -146 -25 -472 -22 -660 6 -80 12 -175 29
-212 37 l-67 15 20 32 c22 38 24 47 6 47 -8 0 -31 -25 -52 -55 -20 -30 -53
-69 -73 -86 -25 -23 -32 -33 -23 -42 8 -8 22 0 55 32 l44 43 129 -25 c219 -43
307 -52 538 -51 228 0 346 13 476 54 43 13 70 15 115 9 131 -18 182 -45 170
-92 -3 -13 -34 -62 -68 -108 -35 -46 -77 -114 -93 -149 -28 -61 -30 -73 -31
-190 0 -153 -19 -206 -97 -275 -75 -68 -155 -90 -306 -82 -109 5 -172 19 -393
84 -12 4 -18 0 -18 -10 0 -12 28 -25 98 -47 154 -48 251 -63 383 -58 107 4
122 7 182 36 75 37 119 83 156 162 23 50 26 67 27 180 0 119 2 130 31 190 16
36 58 102 92 147 103 136 96 185 -35 226 l-76 24 46 22 c46 23 96 72 96 95 0
38 -49 73 -137 99 -50 15 -53 15 -53 -2z"/>
<path d="M4345 8917 c-38 -66 -65 -154 -65 -214 0 -75 23 -66 32 13 8 71 30
136 64 187 23 35 25 57 4 57 -5 0 -21 -19 -35 -43z"/>
<path d="M5490 6330 c-41 -41 -13 -110 44 -110 64 0 94 55 56 103 -26 33 -71
36 -100 7z"/>
<path d="M5845 5675 c-14 -13 -25 -33 -25 -45 0 -26 43 -70 68 -70 33 0 72 38
72 70 0 32 -39 70 -72 70 -10 0 -30 -11 -43 -25z"/>
<path d="M6130 4990 c-20 -20 -26 -65 -12 -86 13 -21 52 -34 77 -28 30 7 45
31 45 73 0 55 -70 81 -110 41z"/>
<path d="M6034 4143 c-26 -18 -36 -54 -24 -84 22 -53 105 -50 124 4 15 43 -10
81 -54 85 -19 1 -40 -1 -46 -5z"/>
<path d="M6558 6541 c-119 -38 -203 -112 -261 -230 -26 -54 -32 -78 -35 -155
-2 -50 1 -110 7 -132 l11 -42 117 30 c64 16 121 27 128 25 6 -3 20 -42 30 -87
20 -88 36 -113 68 -108 39 6 43 31 19 129 -12 51 -21 93 -20 95 2 1 29 9 61
17 67 18 61 25 92 -101 19 -79 39 -101 75 -82 25 14 26 45 1 140 -11 41 -16
77 -11 80 5 3 69 20 143 38 l135 34 -13 46 c-50 191 -221 323 -417 321 -42 0
-98 -8 -130 -18z m272 -100 c25 -13 60 -35 79 -48 33 -26 91 -107 91 -129 0
-11 -350 -104 -391 -104 -11 0 -19 16 -28 52 -14 61 -26 78 -56 78 -48 0 -52
-31 -19 -141 4 -13 -12 -20 -76 -37 -96 -24 -98 -22 -80 71 23 121 106 224
213 267 72 28 202 24 267 -9z"/>
<path d="M6712 6338 c-16 -16 -15 -63 2 -77 8 -7 27 -11 43 -9 33 4 54 48 37
76 -13 21 -65 27 -82 10z"/>
</g>
</svg>
